<svg id="visual" viewBox="0 0 1513 800" width="1513" height="800" xmlns="http://www.w3.org/2000/svg" xmlns:xlink="http://www.w3.org/1999/xlink" version="1.1"><path d="M0 617L50.5 612.5C101 608 202 599 302.8 553C403.7 507 504.3 424 605.2 391C706 358 807 375 907.8 407.8C1008.7 440.7 1109.3 489.3 1210.2 503.8C1311 518.3 1412 498.7 1462.5 488.8L1513 479L1513 801L1462.5 801C1412 801 1311 801 1210.2 801C1109.3 801 1008.7 801 907.8 801C807 801 706 801 605.2 801C504.3 801 403.7 801 302.8 801C202 801 101 801 50.5 801L0 801Z" fill="#0A5783" stroke-linecap="round" stroke-linejoin="miter"></path></svg>